
<svg xmlns="http://www.w3.org/2000/svg" version="1.1" xmlns:xlink="http://www.w3.org/1999/xlink" preserveAspectRatio="none" x="0px" y="0px" width="300px" height="200px" viewBox="0 0 300 200">
<defs>
<g id="Layer0_0_FILL">
<path fill="#000000" stroke="none" d="
M 127.5 70.75
Q 127.5 58.2443359375 122 48 118.646875 41.696875 113.2 36.25 98.95 22 78.75 22 58.55 22 44.25 36.25 30 50.55 30 70.75 30 90.95 44.25 105.2 52.615625 113.565625 63 117.05 70.3671875 119.5 78.75 119.5 98.95 119.5 113.2 105.2 127.5 90.95 127.5 70.75 Z"/>

<path fill="#FF9900" stroke="none" d="
M 236 153
L 236 48 122 48
Q 127.5 58.2443359375 127.5 70.75 127.5 90.95 113.2 105.2 98.95 119.5 78.75 119.5 70.3671875 119.5 63 117.05
L 63 153 236 153 Z"/>
</g>

<path id="Layer0_0_1_STROKES" stroke="#FFFF00" stroke-width="1" stroke-linejoin="round" stroke-linecap="round" fill="none" d="
M 122.025 48
L 236 48 236 153 63 153 63 117.05
Q 52.615625 113.565625 44.25 105.2 30 90.95 30 70.75 30 50.55 44.25 36.25 58.55 22 78.75 22 98.95 22 113.2 36.25 118.646875 41.696875 122.025 48 127.5 58.2443359375 127.5 70.75 127.5 90.95 113.2 105.2 98.95 119.5 78.75 119.5 70.3671875 119.5 63 117.05"/>
</defs>

<g transform="matrix( 1, 0, 0, 1, 0,0) ">
<use xlink:href="#Layer0_0_FILL"/>

<use xlink:href="#Layer0_0_1_STROKES"/>
</g>
</svg>
