<?xml version="1.0" standalone="no"?><!DOCTYPE svg PUBLIC "-//W3C//DTD SVG 1.1//EN" "http://www.w3.org/Graphics/SVG/1.1/DTD/svg11.dtd"><svg t="1508208140497" class="icon" style="" viewBox="0 0 1024 1024" version="1.1" xmlns="http://www.w3.org/2000/svg" p-id="1030" xmlns:xlink="http://www.w3.org/1999/xlink" width="200" height="200"><defs><style type="text/css"></style></defs><path d="M972.8 549.9136v294.7584A128.0768 128.0768 0 0 1 844.8 972.8H179.2a128 128 0 0 1-128-128V179.2c0-70.7328 57.1904-128 127.872-128h202.3168a25.6 25.6 0 0 0 0-51.2H179.072A179.072 179.072 0 0 0 0 179.2v665.6a179.2 179.2 0 0 0 179.2 179.2h665.6c98.944 0 179.2-80.2816 179.2-179.328V549.9136a25.6 25.6 0 0 0-51.2 0z" p-id="1031" fill="#13227a"></path><path d="M960 128c-353.4592 0-640 286.5408-640 640a25.6 25.6 0 0 0 51.2 0c0-325.1968 263.6032-588.8 588.8-588.8a25.6 25.6 0 0 0 0-51.2z" p-id="1032" fill="#13227a"></path><path d="M720.1024 62.1568l256 102.4a25.6 25.6 0 0 0 18.9952-47.5136l-256-102.4a25.6 25.6 0 0 0-18.9952 47.5136z" p-id="1033" fill="#13227a"></path><path d="M808.8064 348.4672l194.6368-189.312a25.6 25.6 0 1 0-35.6864-36.7104L773.12 311.7568a25.6 25.6 0 1 0 35.6864 36.7104z" p-id="1034" fill="#13227a"></path></svg>
